HIERARCHY
ROOT Hips
{
 OFFSET 0.000000 0.000000 0.000000
 CHANNELS 6 Xposition Yposition Zposition Yrotation Xrotation Zrotation
 JOINT Chest
 {
  OFFSET 0.000000 9.585900 0.002600
  CHANNELS 3 Yrotation Xrotation Zrotation
  JOINT Chest2
  {
   OFFSET 0.000000 9.601200 -0.005300
   CHANNELS 3 Yrotation Xrotation Zrotation
   JOINT Chest3
   {
    OFFSET 0.000000 9.561800 0.000000
    CHANNELS 3 Yrotation Xrotation Zrotation
    JOINT Chest4
    {
     OFFSET 0.000000 9.552100 0.000000
     CHANNELS 3 Yrotation Xrotation Zrotation
     JOINT Neck
     {
      OFFSET 0.000000 14.453000 0.000000
      CHANNELS 3 Yrotation Xrotation Zrotation
      JOINT Head
      {
       OFFSET 0.000000 8.936500 -0.011300
       CHANNELS 3 Yrotation Xrotation Zrotation
       End Site
       {
        OFFSET 0.000000 17.073600 -0.006000
       }
      }
     }
     JOINT RightCollar
     {
      OFFSET -2.921100 9.558500 0.000000
      CHANNELS 3 Yrotation Xrotation Zrotation
      JOINT RightShoulder
      {
       OFFSET -13.519700 0.000000 0.000000
       CHANNELS 3 Yrotation Xrotation Zrotation
       JOINT RightElbow
       {
        OFFSET 0.000000 -29.696600 0.000000
        CHANNELS 3 Yrotation Xrotation Zrotation
        JOINT RightWrist
        {
         OFFSET 0.000000 -24.004700 0.000000
         CHANNELS 3 Yrotation Xrotation Zrotation
         End Site
         {
          OFFSET 0.000000 -17.728500 0.000000
         }
        }
       }
      }
     }
     JOINT LeftCollar
     {
      OFFSET 2.921100 9.558500 0.000000
      CHANNELS 3 Yrotation Xrotation Zrotation
      JOINT LeftShoulder
      {
       OFFSET 13.519700 0.000000 0.000000
       CHANNELS 3 Yrotation Xrotation Zrotation
       JOINT LeftElbow
       {
        OFFSET 0.000000 -29.696600 0.000000
        CHANNELS 3 Yrotation Xrotation Zrotation
        JOINT LeftWrist
        {
         OFFSET 0.000000 -24.004700 0.000000
         CHANNELS 3 Yrotation Xrotation Zrotation
         End Site
         {
          OFFSET 0.000000 -17.728500 0.000000
         }
        }
       }
      }
     }
    }
   }
  }
 }
 JOINT RightHip
 {
  OFFSET -7.771700 -0.012900 -0.001300
  CHANNELS 3 Yrotation Xrotation Zrotation
  JOINT RightKnee
  {
   OFFSET 0.000000 -40.869800 0.001200
   CHANNELS 3 Yrotation Xrotation Zrotation
   JOINT RightAnkle
   {
    OFFSET 0.000000 -39.717900 0.002100
    CHANNELS 3 Yrotation Xrotation Zrotation
    JOINT RightToe
    {
     OFFSET 0.000000 -4.965400 11.033500
     CHANNELS 3 Yrotation Xrotation Zrotation
     End Site
     {
      OFFSET 0.000000 -1.423100 5.872300
     }
    }
   }
  }
 }
 JOINT LeftHip
 {
  OFFSET 7.771700 -0.012900 -0.001300
  CHANNELS 3 Yrotation Xrotation Zrotation
  JOINT LeftKnee
  {
   OFFSET 0.000000 -40.869800 0.001200
   CHANNELS 3 Yrotation Xrotation Zrotation
   JOINT LeftAnkle
   {
    OFFSET 0.000000 -39.717900 0.002100
    CHANNELS 3 Yrotation Xrotation Zrotation
    JOINT LeftToe
    {
     OFFSET 0.000000 -4.965400 11.033500
     CHANNELS 3 Yrotation Xrotation Zrotation
     End Site
     {
      OFFSET 0.000000 -1.423100 5.872300
     }
    }
   }
  }
 }
}
MOTION
Frames: 5
Frame Time: 0.008333
-18.613488 58.123309 13.812802 174.331417 -51.334700 -4.315749 4.596764 22.726084 3.618701 2.370425 13.025386 1.794554 3.067265 16.291852 2.356176 2.352369 13.001737 1.787902 1.715207 16.441967 5.361893 1.283412 -5.241652 9.336803 2.778752 5.527045 0.279598 -10.066484 -17.041182 -3.945186 -76.624796 -54.459161 124.251817 14.163995 14.804776 15.306751 -7.101197 2.568969 0.061309 6.959445 -18.251367 1.844814 67.420048 -54.844591 -112.690827 -16.175448 16.091597 -33.646786 3.722932 -20.322915 0.421398 -33.026899 72.027851 -36.207184 6.161146 -11.577985 11.331907 0.032346 0.201365 0.053905 -3.744206 -17.560978 9.770987 85.716446 83.440071 85.386664 0.428234 -22.044170 -16.555095 -0.058530 0.040836 -0.029485
-18.608433 58.128222 13.811179 174.331298 -51.345797 -4.321058 4.587536 22.717568 3.613968 2.375362 13.034143 1.797016 3.055367 16.279746 2.349457 2.359715 13.005835 1.788159 1.718219 16.451252 5.362178 1.246536 -5.282890 9.319917 2.736651 5.457643 0.248774 -10.104684 -16.989193 -3.906705 -76.709647 -54.537172 124.335388 14.200062 14.846388 15.256420 -7.141083 2.498461 0.054318 6.987420 -18.188762 1.862150 67.433768 -54.892446 -112.709068 -16.118225 16.086491 -33.547630 3.707361 -20.311215 0.427070 -32.957345 72.055759 -36.130649 6.144063 -11.627127 11.303698 0.065883 0.155088 0.052297 -3.737321 -17.547870 9.776466 85.696696 83.436062 85.372108 0.425600 -22.041074 -16.552777 -0.063109 0.037431 -0.032156
-18.604375 58.133008 13.808221 174.335395 -51.357740 -4.323141 4.580325 22.720372 3.609007 2.375380 13.032860 1.796222 3.047663 16.266453 2.343398 2.369391 13.023586 1.792929 1.688391 16.417437 5.344904 1.216319 -5.302647 9.303892 2.718891 5.422499 0.228884 -10.112710 -16.952735 -3.886641 -76.881314 -54.618793 124.458216 14.238488 14.885980 15.205507 -7.168569 2.458187 0.052637 7.008654 -18.155028 1.868530 67.428002 -54.902482 -112.702943 -16.112710 16.071997 -33.463388 3.668747 -20.294992 0.429063 -32.895347 72.077785 -36.078588 6.140141 -11.685867 11.276297 0.060700 0.186464 0.053527 -3.722964 -17.536514 9.774229 85.689447 83.434785 85.371745 0.426473 -22.038681 -16.544336 -0.072530 0.033235 -0.035402
-18.599610 58.137054 13.804776 174.341235 -51.365795 -4.329683 4.572198 22.719433 3.606646 2.368688 13.021001 1.791159 3.038874 16.236518 2.333875 2.376683 13.047764 1.797688 1.648032 16.376355 5.317533 1.192535 -5.303957 9.287669 2.713066 5.408382 0.212774 -10.169612 -16.922498 -3.849347 -76.996805 -54.696571 124.568990 14.276330 14.928599 15.157031 -7.195739 2.428663 0.050419 7.040672 -18.110180 1.876946 67.422522 -54.912811 -112.697801 -16.110953 16.053441 -33.374316 3.621342 -20.278422 0.440258 -32.839266 72.083996 -36.048194 6.143857 -11.745392 11.264101 0.068260 0.189933 0.048407 -3.705845 -17.532581 9.777842 85.690012 83.441629 85.390122 0.424768 -22.032978 -16.542155 -0.067155 0.021434 -0.033547
-18.596005 58.140857 13.800078 174.354063 -51.374797 -4.332302 4.558630 22.711154 3.596073 2.364866 13.000451 1.787488 3.042739 16.261865 2.338302 2.365333 13.015382 1.788602 1.630063 16.373445 5.303529 1.169989 -5.306823 9.269885 2.706435 5.410484 0.200848 -10.232098 -16.889552 -3.810129 -77.107852 -54.770319 124.677628 14.312559 14.974357 15.111111 -7.218199 2.429541 0.048590 7.063254 -18.087870 1.886651 67.423670 -54.936962 -112.707377 -16.090611 16.037079 -33.264883 3.527622 -20.255673 0.451738 -32.729348 72.087585 -36.004862 6.146950 -11.799547 11.254976 0.061642 0.190182 0.040224 -3.707514 -17.522844 9.771549 85.736676 83.439259 85.433134 0.425345 -22.035883 -16.535744 -0.074206 0.019067 -0.036631
